<svg width="24" height="24" viewBox="0 0 24 24" fill="none" xmlns="http://www.w3.org/2000/svg">
<g clip-path="url(#clip0_46_6)">
<path d="M20.5 10H19V6C19 5.46957 18.7893 4.96086 18.4142 4.58579C18.0391 4.21071 17.5304 4 17 4H13V2.5C13 1.83696 12.7366 1.20107 12.2678 0.732233C11.7989 0.263392 11.163 0 10.5 0C9.83696 0 9.20107 0.263392 8.73223 0.732233C8.26339 1.20107 8 1.83696 8 2.5V4H4C3.46957 4 2.96086 4.21071 2.58579 4.58579C2.21071 4.96086 2 5.46957 2 6V9.8H3.5C5 9.8 6.2 11 6.2 12.5C6.2 14 5 15.2 3.5 15.2H2V19C2 19.5304 2.21071 20.0391 2.58579 20.4142C2.96086 20.7893 3.46957 21 4 21H7.8V19.5C7.8 18 9 16.8 10.5 16.8C12 16.8 13.2 18 13.2 19.5V21H17C17.5304 21 18.0391 20.7893 18.4142 20.4142C18.7893 20.0391 19 19.5304 19 19V15H20.5C21.163 15 21.7989 14.7366 22.2678 14.2678C22.7366 13.7989 23 13.163 23 12.5C23 11.837 22.7366 11.2011 22.2678 10.7322C21.7989 10.2634 21.163 10 20.5 10Z" fill="black"/>
</g>
<defs>
<clipPath id="clip0_46_6">
<rect width="24" height="24" fill="white"/>
</clipPath>
</defs>
</svg>
